<?xml version="1.0" encoding="UTF-8"?><svg id="_4-title-4-HR" xmlns="http://www.w3.org/2000/svg" width="1200" height="675" viewBox="0 0 1200 675"><text transform="translate(266.62 387.33)" fill="#231f20" font-family="ArialMT, Arial" font-size="12"><tspan x="0" y="0">32-bit Gener</tspan><tspan x="66.7" y="0">-</tspan></text><text transform="translate(270.86 426.45)" fill="#231f20" font-family="ArialMT, Arial" font-size="12"><tspan x="0" y="0">SC</tspan><tspan x="16.67" y="0" letter-spacing="-.04em">T</tspan><tspan x="23.55" y="0">imer/P</tspan><tspan x="58.22" y="0">-</tspan></text><text/><text transform="translate(289.75 499.32)" fill="#231f20" font-family="ArialMT, Arial" font-size="12"><tspan x="0" y="0" letter-spacing="-.02em">R</tspan><tspan x="8.45" y="0">TC</tspan></text><text transform="translate(386.65 409.03)" fill="#231f20" font-family="ArialMT, Arial" font-size="12"><tspan x="0" y="0">Repeti</tspan><tspan x="34.69" y="0">-</tspan></text><text transform="translate(386.78 448.3)" fill="#231f20" font-family="ArialMT, Arial" font-size="12"><tspan x="0" y="0">WWD</tspan><tspan x="31.32" y="0" letter-spacing="-.02em">T</tspan></text><text/><text transform="translate(397.66 511.73)" fill="#231f20" font-family="ArialMT, Arial" font-size="12"><tspan x="0" y="0">Mi</tspan><tspan x="12.66" y="0">-</tspan></text><rect x="166.97" y="37.09" width="270" height="571.89" fill="#f7f9fb"/><rect x="183.04" y="70.22" width="237.86" height="51.04" rx=".2" ry=".2" fill="#c6def0"/><text transform="translate(277.62 91.38)" fill="#231f20" font-family="ArialMT, Arial" font-size="12"><tspan x="0" y="0">4 Shader</tspan><tspan x="-83.81" y="14.4">OpenGL</tspan></text><text transform="translate(239.17 101.79) scale(.58)" fill="#231f20" font-family="ArialMT, Arial" font-size="12"><tspan x="0" y="0">®</tspan></text><text transform="translate(244.33 105.78)" fill="#231f20" font-family="ArialMT, Arial" font-size="12"><tspan x="0" y="0" xml:space="preserve"> ES 3.1, </tspan><tspan x="46.03" y="0" letter-spacing="-.04em">V</tspan><tspan x="53.58" y="0">ulkan</tspan></text><text transform="translate(326.6 101.79) scale(.58)" fill="#231f20" font-family="ArialMT, Arial" font-size="12"><tspan x="0" y="0">®</tspan></text><text transform="translate(331.75 105.78)" fill="#231f20" font-family="ArialMT, Arial" font-size="12"><tspan x="0" y="0">, OpenCL</tspan></text><text transform="translate(383.12 101.79) scale(.58)" fill="#231f20" font-family="ArialMT, Arial" font-size="12"><tspan x="0" y="0">™</tspan></text><text transform="translate(390.11 105.78)" fill="#231f20" font-family="ArialMT, Arial" font-size="12"><tspan x="0" y="0" xml:space="preserve"> 1.2</tspan></text><polygon points="420.9 181.48 183.04 181.48 183.04 181.48 183.04 146.01 183.04 146.01 420.9 146.01 420.9 146.01 420.9 181.48 420.9 181.48" fill="#c6def0" stroke="#231f20" stroke-dasharray="0 0 2.25 2.25" stroke-miterlimit="10" stroke-width=".75"/><text transform="translate(227.59 161.59)" fill="#231f20" font-family="ArialMT, Arial" font-size="12"><tspan x="0" y="0">4Kp60 HEVC/H.265, H.264, </tspan><tspan x="38.69" y="14.4">VP9 Decoder</tspan></text><rect x="183.04" y="261.49" width="237.86" height="35.47" fill="#c6def0"/><text transform="translate(212.91 274.3)" fill="#231f20" font-family="ArialMT, Arial" font-size="12"><tspan x="0" y="0">Dual independent display support</tspan><tspan x="56.7" y="14.4">up to 4Kp60</tspan></text><rect x="183.04" y="430.59" width="237.86" height="30.2" fill="#c6def0"/><text transform="translate(246.29 444.39)" fill="#231f20" font-family="ArialMT, Arial" font-size="12"><tspan x="0" y="0">2x MIPI-CSI (4-lanes </tspan><tspan x="40.67" y="14.4">each)</tspan></text><rect x="183.04" y="485.94" width="237.86" height="35.47" fill="#c6def0"/><text transform="translate(226.44 498.48)" fill="#231f20" font-family="ArialMT, Arial" font-size="12"><tspan x="0" y="0">6x I</tspan></text><text transform="translate(245.78 494.48) scale(.58)" fill="#231f20" font-family="ArialMT, Arial" font-size="12"><tspan x="0" y="0">2</tspan></text><text transform="translate(249.67 498.48)" fill="#231f20" font-family="ArialMT, Arial" font-size="12"><tspan x="0" y="0">S/SAI with</tspan><tspan x="55.35" y="0" letter-spacing="-.02em"> </tspan><tspan x="58.47" y="0">TDM support</tspan><tspan x="-52.36" y="14.4">(20+ channels, each 32 bits @384KHz)</tspan></text><rect x="183.04" y="300.56" width="237.86" height="26.51" fill="#c6def0" stroke="#231f20" stroke-dasharray="0 0 2.25 2.25" stroke-miterlimit="10" stroke-width=".75"/><text transform="translate(226.55 315.88)" fill="#231f20" font-family="ArialMT, Arial" font-size="12"><tspan x="0" y="0">Dolby </tspan><tspan x="34.01" y="0" letter-spacing="-.02em">V</tspan><tspan x="41.8" y="0">ision</tspan></text><text transform="translate(293.03 311.88) scale(.58)" fill="#231f20" font-family="ArialMT, Arial" font-size="12"><tspan x="0" y="0">™</tspan></text><text transform="translate(300.03 315.88)" fill="#231f20" font-family="ArialMT, Arial" font-size="12"><tspan x="0" y="0">, HDR10, HLG</tspan></text><rect x="183.04" y="379.42" width="237.86" height="22.57" fill="#c6def0"/><text transform="translate(216.83 394.83)" fill="#231f20" font-family="ArialMT, Arial" font-size="12"><tspan x="0" y="0">1x HDMI 2.0a</tspan><tspan x="73.36" y="0" letter-spacing="-.02em"> </tspan><tspan x="76.48" y="0">Tx (w/ HDC</tspan><tspan x="138.47" y="0" letter-spacing="-.02em">P</tspan><tspan x="146.26" y="0" xml:space="preserve"> 2.2)</tspan></text><rect x="183.04" y="354" width="237.86" height="22.57" fill="#c6def0"/><text transform="translate(290.41 367.58)" fill="#231f20" font-family="ArialMT, Arial" font-size="12"><tspan x="0" y="0">eD</tspan><tspan x="15.34" y="0" letter-spacing="-.02em">P</tspan></text><rect x="183.04" y="404.93" width="237.86" height="22.57" fill="#c6def0"/><text transform="translate(244.29 420.52)" fill="#231f20" font-family="ArialMT, Arial" font-size="12"><tspan x="0" y="0">1x MIPI-DSI (4-lanes)</tspan></text><rect x="183.04" y="525.55" width="237.86" height="20.49" fill="#c6def0"/><text transform="translate(261.41 540.65)" fill="#231f20" font-family="ArialMT, Arial" font-size="12"><tspan x="0" y="0">SPDIF</tspan><tspan x="35.34" y="0" letter-spacing="-.02em"> </tspan><tspan x="38.46" y="0">Tx &amp; Rx</tspan></text><rect x="183.04" y="549.16" width="237.86" height="20.49" fill="#c6def0"/><text transform="translate(279.29 565)" fill="#231f20" font-family="ArialMT, Arial" font-size="12"><tspan x="0" y="0">DSD512</tspan></text><rect x="183.04" y="573.46" width="237.86" height="26.51" fill="#c6def0"/><text transform="translate(207.93 590.68)" fill="#231f20" font-family="ArialMT, Arial" font-size="12"><tspan x="0" y="0">HDMI</tspan><tspan x="30.66" y="0" letter-spacing="-.06em"> </tspan><tspan x="33.33" y="0">Audio Return Channel (ARC)</tspan></text><rect x="183.04" y="185.22" width="237.86" height="51.55" rx=".09" ry=".09" fill="#c6def0" stroke="#231f20" stroke-dasharray="0 0 2.25 2.25" stroke-miterlimit="10" stroke-width=".75"/><text transform="translate(219.26 200.14)" fill="#231f20" font-family="ArialMT, Arial" font-size="12"><tspan x="0" y="0">1080p60 MPEG-2, MPEG-4p2, </tspan><tspan x="23.24" y="14.4">VC-1, VP8, </tspan><tspan x="86.59" y="14.4" letter-spacing="-.02em">R</tspan><tspan x="95.04" y="14.4">V9,</tspan><tspan x="113.05" y="14.4" letter-spacing="-.06em"> </tspan><tspan x="115.73" y="14.4" letter-spacing="-.07em">A</tspan><tspan x="122.84" y="14.4">VS, </tspan><tspan x="18.35" y="28.8">MJPEG, H.263 Decoder</tspan></text><text transform="translate(270.63 54.71)" fill="#231f20" font-family="Arial-BoldMT, Arial" font-size="12" font-weight="700"><tspan x="0" y="0">Multimedia </tspan><tspan x="-60.68" y="10.47">Graphics Processing Unit (GPU)</tspan></text><text transform="translate(220.4 141)" fill="#231f20" font-family="Arial-BoldMT, Arial" font-size="12" font-weight="700"><tspan x="0" y="0" letter-spacing="-.02em">V</tspan><tspan x="7.79" y="0">ideo Processing Unit (VPU)</tspan></text><text transform="translate(250.29 256.81)" fill="#231f20" font-family="Arial-BoldMT, Arial" font-size="12" font-weight="700"><tspan x="0" y="0">Display Controller</tspan></text><text transform="translate(234.94 347.69)" fill="#231f20" font-family="Arial-BoldMT, Arial" font-size="12" font-weight="700"><tspan x="0" y="0">Display and Camera I/O</tspan></text><text transform="translate(275.31 480.72)" fill="#231f20" font-family="Arial-BoldMT, Arial" font-size="12" font-weight="700"><tspan x="0" y="0">Audio I/O</tspan></text><rect x="451.02" y="37.09" width="270" height="143.14" fill="#f7f9fb"/><rect x="451.02" y="187.36" width="270" height="224.67" fill="#f7f9fb"/><rect x="466.78" y="148.89" width="238" height="24.32" fill="#6facde"/><rect x="466.78" y="63.51" width="203.26" height="57.75" fill="#6facde" stroke="#fff" stroke-miterlimit="10" stroke-width=".37"/><rect x="478.36" y="71.09" width="203.26" height="57.75" fill="#6facde" stroke="#fff" stroke-miterlimit="10" stroke-width=".37"/><rect x="489.94" y="78.67" width="203.26" height="57.75" fill="#6facde" stroke="#fff" stroke-miterlimit="10" stroke-width=".37"/><rect x="501.52" y="86.25" width="203.26" height="57.75" fill="#6facde" stroke="#fff" stroke-miterlimit="10" stroke-width=".37"/><text transform="translate(546.37 166.91)" fill="#231f20" font-family="ArialMT, Arial" font-size="12"><tspan x="0" y="0">1MB L2 Cache</tspan></text><rect x="466.78" y="212.96" width="238" height="26.97" fill="#c6def0"/><text transform="translate(500.47 231.7)" fill="#231f20" font-family="ArialMT, Arial" font-size="12"><tspan x="0" y="0">HAB, S</tspan><tspan x="39.35" y="0" letter-spacing="-.02em">R</tspan><tspan x="47.79" y="0">TC, SJ</tspan><tspan x="84.46" y="0" letter-spacing="-.07em">T</tspan><tspan x="90.9" y="0">AG,</tspan><tspan x="111.57" y="0" letter-spacing="-.02em"> </tspan><tspan x="114.69" y="0" letter-spacing="-.04em">T</tspan><tspan x="121.58" y="0">rustZone</tspan></text><rect x="466.78" y="283.23" width="238" height="26.97" fill="#c6def0"/><text transform="translate(503.81 297.96)" fill="#231f20" font-family="ArialMT, Arial" font-size="12"><tspan x="0" y="0">Secure Real</tspan><tspan x="66.04" y="0" letter-spacing="-.02em"> </tspan><tspan x="69.15" y="0" letter-spacing="-.04em">T</tspan><tspan x="76.04" y="0">ime Clock (</tspan><tspan x="136.04" y="0" letter-spacing="-.02em">R</tspan><tspan x="144.49" y="0">TC)</tspan></text><rect x="466.78" y="314.23" width="238" height="26.97" fill="#c6def0"/><text transform="translate(534.69 331.78)" fill="#231f20" font-family="ArialMT, Arial" font-size="12"><tspan x="0" y="0">eFuse Key Storage</tspan></text><rect x="466.78" y="345.23" width="238" height="26.97" fill="#c6def0"/><text transform="translate(479.2 360.53)" fill="#231f20" font-family="ArialMT, Arial" font-size="12"><tspan x="0" y="0" letter-spacing="-.04em">T</tspan><tspan x="6.88" y="0">rue Random Number Generator (RNG)</tspan></text><rect x="466.78" y="376.24" width="238" height="26.97" fill="#c6def0"/><text transform="translate(533.76 395.68)" fill="#231f20" font-family="ArialMT, Arial" font-size="12"><tspan x="0" y="0">32 KB Secure RAM</tspan></text><rect x="466.78" y="243.96" width="238" height="35.33" fill="#c6def0"/><text transform="translate(486.53 257.25)" fill="#231f20" font-family="ArialMT, Arial" font-size="12"><tspan x="0" y="0">AES256, RS</tspan><tspan x="67.37" y="0" letter-spacing="-.06em">A</tspan><tspan x="74.71" y="0" xml:space="preserve"> 4096, SHA-256, 3DES, </tspan><tspan x="-3.3" y="14.4">DES, Elliptic Curve (ECC),</tspan><tspan x="138.06" y="14.4" letter-spacing="-.06em"> </tspan><tspan x="140.73" y="14.4">ARC4, MD5</tspan></text><text transform="translate(540.34 56.37)" fill="#231f20" font-family="Arial-BoldMT, Arial" font-size="12" font-weight="700"><tspan x="0" y="0">Core Complex 1</tspan></text><text transform="translate(562.34 206.09)" fill="#231f20" font-family="Arial-BoldMT, Arial" font-size="12" font-weight="700"><tspan x="0" y="0">Security</tspan></text><rect x="451.02" y="420.02" width="270" height="188.96" fill="#f7f9fb"/><text transform="translate(541.68 438.75)" fill="#231f20" font-family="Arial-BoldMT, Arial" font-size="12" font-weight="700"><tspan x="0" y="0">System Control</tspan></text><rect x="466.78" y="444.72" width="238" height="21.77" fill="#c6def0"/><text transform="translate(547.1 462.1)" fill="#231f20" font-family="ArialMT, Arial" font-size="12"><tspan x="0" y="0">2x Smart DM</tspan><tspan x="70.01" y="0" letter-spacing="-.06em">A</tspan></text><rect x="466.78" y="501.21" width="238" height="22.46" fill="#c6def0"/><text transform="translate(557.77 517.9)" fill="#231f20" font-family="ArialMT, Arial" font-size="12"><tspan x="0" y="0">Boot ROM</tspan></text><rect x="466.78" y="527.39" width="238" height="22.7" fill="#c6def0"/><text transform="translate(510.08 541.1)" fill="#231f20" font-family="ArialMT, Arial" font-size="12"><tspan x="0" y="0">Resource Domain Controller</tspan></text><rect x="466.78" y="553.57" width="238" height="22.7" fill="#c6def0"/><text transform="translate(546.1 567.95)" fill="#231f20" font-family="ArialMT, Arial" font-size="12"><tspan x="0" y="0">PMIC interface</tspan></text><rect x="466.78" y="579.75" width="238" height="21.57" fill="#c6def0"/><text transform="translate(528.76 594.44)" fill="#231f20" font-family="ArialMT, Arial" font-size="12"><tspan x="0" y="0" letter-spacing="-.11em">T</tspan><tspan x="6" y="0">emp Monitor/Sensor</tspan></text><rect x="466.78" y="470.21" width="238" height="26.88" fill="#c6def0"/><text transform="translate(527.6 486.15)" fill="#231f20" font-family="ArialMT, Arial" font-size="11"><tspan x="0" y="0">6x</tspan><tspan x="11.62" y="0" letter-spacing="-.02em"> </tspan><tspan x="14.48" y="0" letter-spacing="-.04em">T</tspan><tspan x="20.79" y="0">ime</tspan><tspan x="38.51" y="0" letter-spacing="-.06em">r</tspan><tspan x="41.57" y="0">, 3x </tspan><tspan x="62.35" y="0" letter-spacing="-.04em">W</tspan><tspan x="72.33" y="0">atch Dog</tspan></text><rect x="506.12" y="90.32" width="192.26" height="15.16" fill="#fff" opacity=".4"/><rect x="506.12" y="107.54" width="94.38" height="15.16" fill="#fff" opacity=".4"/><rect x="603.75" y="107.54" width="94.43" height="15.16" fill="#fff" opacity=".4"/><rect x="506.12" y="124.77" width="94.38" height="15.16" fill="#fff" opacity=".4"/><rect x="603.75" y="124.77" width="94.43" height="15.16" fill="#fff" opacity=".4"/><text transform="translate(529.69 101.51)" fill="#231f20" font-family="ArialMT, Arial" font-size="12"><tspan x="0" y="0">4x</tspan><tspan x="12.67" y="0" letter-spacing="-.06em"> </tspan><tspan x="15.35" y="0">Arm</tspan></text><text transform="translate(567.03 97.51) scale(.58)" fill="#231f20" font-family="ArialMT, Arial" font-size="12"><tspan x="0" y="0">®</tspan></text><text transform="translate(572.19 101.51)" fill="#231f20" font-family="ArialMT, Arial" font-size="12"><tspan x="0" y="0" xml:space="preserve"> Cortex</tspan></text><text transform="translate(610.86 97.51) scale(.58)" fill="#231f20" font-family="ArialMT, Arial" font-size="12"><tspan x="0" y="0">®</tspan></text><text transform="translate(616.02 101.51)" fill="#231f20" font-family="ArialMT, Arial" font-size="12"><tspan x="0" y="0">-A53 cores</tspan></text><text transform="translate(514.59 117.64)" fill="#231f20" font-family="ArialMT, Arial" font-size="11"><tspan x="0" y="0">32 KB L1 I-cache</tspan></text><text transform="translate(525.66 135.43)" fill="#231f20" font-family="ArialMT, Arial" font-size="12"><tspan x="0" y="0">Arm Neon</tspan></text><text transform="translate(579.67 131.43) scale(.58)" fill="#231f20" font-family="ArialMT, Arial" font-size="12"><tspan x="0" y="0">™</tspan></text><text transform="translate(634.12 137.43)" fill="#231f20" font-family="ArialMT, Arial" font-size="12"><tspan x="0" y="0">FPU</tspan></text><text transform="translate(606.16 117.95)" fill="#231f20" font-family="ArialMT, Arial" font-size="11"><tspan x="0" y="0">32 KB L1 D-cache</tspan></text><rect x="735.07" y="37.09" width="270" height="99.33" fill="#f7f9fb"/><rect x="753.54" y="64.2" width="233.23" height="64.05" fill="#6facde" stroke="#fff" stroke-miterlimit="10" stroke-width=".42"/><rect x="735.07" y="143.26" width="270" height="262.27" fill="#f7f9fb"/><rect x="750.83" y="168.86" width="238" height="26.97" fill="#c6def0"/><text transform="translate(754.45 185.21)" fill="#231f20" font-family="ArialMT, Arial" font-size="12"><tspan x="0" y="0">2x PCIe 2.0 with L1 substates (1-lane each)</tspan></text><rect x="750.83" y="278.41" width="238" height="26.97" fill="#c6def0"/><text transform="translate(826.31 295.96)" fill="#231f20" font-family="ArialMT, Arial" font-size="12"><tspan x="0" y="0">4x UA</tspan><tspan x="32.68" y="0" letter-spacing="-.02em">RT</tspan><tspan x="48.24" y="0" xml:space="preserve"> 5Mbps</tspan></text><rect x="750.83" y="309.41" width="238" height="26.97" fill="#c6def0"/><text transform="translate(853.88 328.85)" fill="#231f20" font-family="ArialMT, Arial" font-size="12"><tspan x="0" y="0">4x I</tspan></text><text transform="translate(873.22 324.86) scale(.58)" fill="#231f20" font-family="ArialMT, Arial" font-size="12"><tspan x="0" y="0">2</tspan></text><text transform="translate(877.11 328.85)" fill="#231f20" font-family="ArialMT, Arial" font-size="12"><tspan x="0" y="0">C</tspan></text><rect x="750.83" y="340.41" width="238" height="26.97" fill="#c6def0"/><text transform="translate(852.15 359.86)" fill="#231f20" font-family="ArialMT, Arial" font-size="12"><tspan x="0" y="0">3x SPI</tspan></text><rect x="750.83" y="371.41" width="238" height="26.97" fill="#c6def0"/><text transform="translate(847.16 390.86)" fill="#231f20" font-family="ArialMT, Arial" font-size="12"><tspan x="0" y="0">4x PWM</tspan></text><rect x="750.83" y="199.87" width="238" height="35.33" fill="#c6def0"/><text transform="translate(792.52 214.78)" fill="#231f20" font-family="ArialMT, Arial" font-size="12"><tspan x="0" y="0">2x USB3.0 Dual Role and PH</tspan><tspan x="156.75" y="0" letter-spacing="-.02em">Y</tspan><tspan x="23.69" y="14.4">(support USB</tspan><tspan x="95.72" y="14.4" letter-spacing="-.02em"> </tspan><tspan x="98.84" y="14.4" letter-spacing="-.06em">T</tspan><tspan x="105.5" y="14.4">ype C)</tspan></text><rect x="750.83" y="239.14" width="238" height="35.33" fill="#c6def0"/><text transform="translate(825.01 252.55)" fill="#231f20" font-family="ArialMT, Arial" font-size="12"><tspan x="0" y="0">1x Gb Ethernet</tspan><tspan x="-60.25" y="14.4">(with IEEE 1588, EEE &amp;</tspan><tspan x="67.81" y="14.4" letter-spacing="-.06em"> </tspan><tspan x="70.49" y="14.4" letter-spacing="-.07em">A</tspan><tspan x="77.6" y="14.4">VB support)</tspan></text><text transform="translate(824.39 56.37)" fill="#231f20" font-family="Arial-BoldMT, Arial" font-size="12" font-weight="700"><tspan x="0" y="0">Core Complex 2</tspan></text><text transform="translate(818.39 161.99)" fill="#231f20" font-family="Arial-BoldMT, Arial" font-size="12" font-weight="700"><tspan x="0" y="0">Connectivity &amp; I/O</tspan></text><rect x="735.07" y="412.91" width="270" height="196.07" fill="#f7f9fb"/><rect x="750.83" y="496.44" width="238" height="30.69" fill="#bfc8cf"/><text transform="translate(814.76 517.5)" fill="#231f20" font-family="ArialMT, Arial" font-size="12"><tspan x="0" y="0">2x SDIO3.0/MMC5.0</tspan></text><rect x="750.83" y="532.51" width="238" height="30.69" fill="#bfc8cf"/><text transform="translate(783.98 553.57)" fill="#231f20" font-family="ArialMT, Arial" font-size="12"><tspan x="0" y="0">NAND CT</tspan><tspan x="53.33" y="0" letter-spacing="-.04em">L</tspan><tspan x="59.56" y="0" xml:space="preserve"> (SLC/MLC) - BCH62</tspan></text><rect x="750.83" y="568.57" width="238" height="30.69" fill="#bfc8cf"/><text transform="translate(822.42 589.64)" fill="#231f20" font-family="ArialMT, Arial" font-size="12"><tspan x="0" y="0">1x QuadSPI (XIP)</tspan></text><rect x="750.83" y="439.2" width="238" height="51.44" fill="#bfc8cf"/><text transform="translate(784.63 464.3)" fill="#231f20" font-family="ArialMT, Arial" font-size="12"><tspan x="0" y="0">x32/x16 LPDDR4/DDR4/DDR3</tspan><tspan x="164.72" y="0" letter-spacing="-.04em">L</tspan><tspan x="39.45" y="14.4">Up to 3200 MTps</tspan></text><text transform="translate(821.72 431.64)" fill="#231f20" font-family="Arial-BoldMT, Arial" font-size="12" font-weight="700"><tspan x="0" y="0">External Memory</tspan></text><g><rect x="761.13" y="71.9" width="217.71" height="15.16" fill="#fff" opacity=".4"/><text transform="translate(809.11 83.34)" fill="#231f20" font-family="ArialMT, Arial" font-size="12"><tspan x="0" y="0">1x</tspan><tspan x="12.67" y="0" letter-spacing="-.06em"> </tspan><tspan x="15.35" y="0">Arm Cortex-M4 core</tspan></text></g><g><rect x="761.13" y="105.48" width="217.71" height="15.16" fill="#fff" opacity=".4"/><text transform="translate(813.53 116.66)" fill="#231f20" font-family="ArialMT, Arial" font-size="12"><tspan x="0" y="0">256 KB</tspan><tspan x="39.36" y="0" letter-spacing="-.02em"> </tspan><tspan x="42.48" y="0">TCM (SRAM)</tspan></text></g><g><rect x="761.13" y="88.69" width="108.7" height="15.16" fill="#fff" opacity=".4"/><text transform="translate(765.26 100.13)" fill="#231f20" font-family="ArialMT, Arial" font-size="12"><tspan x="0" y="0" xml:space="preserve">16 KB L1  I-cache</tspan></text></g><g><rect x="872.11" y="88.69" width="106.73" height="15.16" fill="#fff" opacity=".4"/><text transform="translate(874.1 101.51)" fill="#231f20" font-family="ArialMT, Arial" font-size="12"><tspan x="0" y="0">16 KB L1 D-cache</tspan></text></g><text transform="translate(190.06 637.87)" fill="#231f20" font-family="ArialMT, Arial" font-size="12" letter-spacing=".01em"><tspan x="0" y="0">Optional Capability</tspan></text><g><rect x="166.97" y="626.4" width="15.73" height="15.73" fill="#fff"/><path d="m182.7,626.4h-2.25v.75h2.25v-.75h0Zm-3.74,0h-2.25v.75h2.25v-.75h0Zm-3.74,0h-2.25v.75h2.25v-.75h0Zm-3.74,0h-2.25v.75h2.25v-.75h0Zm-3.74,0h-.75v.75h0v.75h.75v-.75h0v-.75h0Zm0,2.99h-.75v2.25h.75v-2.25h0Zm0,3.74h-.75v2.25h.75v-2.25h0Zm0,3.74h-.75v2.25h.75v-2.25h0Zm0,3.74h-.75v1.5h.75v-1.5h0Zm3.74.75h-2.25v.75h2.25v-.75h0Zm3.74,0h-2.25v.75h2.25v-.75h0Zm3.74,0h-2.25v.75h2.25v-.75h0Zm3.74,0h-2.25v.75h2.25v-.75h0Zm0-2.99h-.75v2.25h.75v-2.25h0Zm0-3.74h-.75v2.25h.75v-2.25h0Zm0-3.74h-.75v2.25h.75v-2.25h0Zm0-3.74h-.75v2.25h.75v-2.25h0Z" fill="#231f20"/></g></svg>